<svg width="512" height="512" viewBox="0 0 512 512" fill="none" xmlns="http://www.w3.org/2000/svg">
<path d="M469.03 268.017C469.03 379.034 379.034 469.03 268.017 469.03C157.001 469.03 67.0044 379.034 67.0044 268.017C67.0044 157.001 157.001 67.0043 268.017 67.0043C379.034 67.0043 469.03 157.001 469.03 268.017Z" fill="#4B6C9C"/>
<path d="M512 256C512 397.385 397.385 512 256 512C114.615 512 0 397.385 0 256C0 114.615 114.615 0 256 0C397.385 0 512 114.615 512 256Z" fill="#5BAE7C"/>
<path d="M512 256C512 397.385 397.385 512 256 512C114.615 512 0 397.385 0 256C0 114.615 114.615 0 256 0C397.385 0 512 114.615 512 256Z" fill="url(#paint0_linear)"/>
<path fill-rule="evenodd" clip-rule="evenodd" d="M221.194 509.654C121.698 496.129 40.3756 425.44 11.3939 331.755L173.892 132.413C197.801 135.479 225.695 136.335 249.871 137.077C275.025 137.849 296.156 138.498 304.588 141.383C332.991 151.1 362.955 169.94 365.457 222.478C366.905 252.883 287.964 395.166 221.194 509.654Z" fill="black" fill-opacity="0.05"/>
<path d="M241.601 294.793V376.5H173.892V132.413H274.94C304.269 132.413 326.609 139.883 341.961 154.822C357.542 169.532 365.333 189.298 365.333 214.12C365.333 229.52 361.896 243.31 355.022 255.491C348.148 267.673 337.837 277.326 324.089 284.451C310.57 291.346 294.187 294.793 274.94 294.793H241.601ZM267.378 241.356C287.084 241.356 296.936 232.278 296.936 214.12C296.936 196.193 287.084 187.23 267.378 187.23H241.601V241.356H267.378Z" fill="white"/>
<defs>
<linearGradient id="paint0_linear" x1="512.104" y1="-100.507" x2="-50.2533" y2="541.618" gradientUnits="userSpaceOnUse">
<stop stop-color="#59A777"/>
<stop offset="1" stop-color="white" stop-opacity="0"/>
</linearGradient>
</defs>
</svg>
